<svg xmlns="http://www.w3.org/2000/svg" xmlns:svg="http://www.w3.org/2000/svg" id="svg8" width="702.632" height="558.636" version="1.1" viewBox="0 0 185.905 147.806"><title id="title2471">transactions-2</title><defs id="defs2"><marker id="marker1759" orient="auto" refX="0" refY="0" style="overflow:visible"><path id="path1757" d="M 8.7185878,4.0337352 -2.2072895,0.01601326 8.7185884,-4.0017078 c -1.7454984,2.3720609 -1.7354408,5.6174519 -6e-7,8.035443 z" transform="matrix(-1.1,0,0,-1.1,-1.1,0)" style="fill:#000;fill-opacity:1;fill-rule:evenodd;stroke:#000;stroke-width:.625;stroke-linejoin:round;stroke-opacity:1"/></marker><marker style="overflow:visible" id="marker1703" orient="auto" refX="0" refY="0"><path style="fill:#000;fill-opacity:1;fill-rule:evenodd;stroke:#000;stroke-width:.625;stroke-linejoin:round;stroke-opacity:1" id="path1701" d="M 8.7185878,4.0337352 -2.2072895,0.01601326 8.7185884,-4.0017078 c -1.7454984,2.3720609 -1.7354408,5.6174519 -6e-7,8.035443 z" transform="matrix(-1.1,0,0,-1.1,-1.1,0)"/></marker><marker id="Arrow2Lend" orient="auto" refX="0" refY="0" style="overflow:visible"><path id="path1114" d="M 8.7185878,4.0337352 -2.2072895,0.01601326 8.7185884,-4.0017078 c -1.7454984,2.3720609 -1.7354408,5.6174519 -6e-7,8.035443 z" transform="matrix(-1.1,0,0,-1.1,-1.1,0)" style="fill:#000;fill-opacity:1;fill-rule:evenodd;stroke:#000;stroke-width:.625;stroke-linejoin:round;stroke-opacity:1"/></marker><marker style="overflow:visible" id="Arrow2Lend-3" orient="auto" refX="0" refY="0"><path style="fill:#000;fill-opacity:1;fill-rule:evenodd;stroke:#000;stroke-width:.625;stroke-linejoin:round;stroke-opacity:1" id="path1114-9" d="M 8.7185878,4.0337352 -2.2072895,0.01601326 8.7185884,-4.0017078 c -1.7454984,2.3720609 -1.7354408,5.6174519 -6e-7,8.035443 z" transform="matrix(-1.1,0,0,-1.1,-1.1,0)"/></marker><marker style="overflow:visible" id="Arrow2Lend-2" orient="auto" refX="0" refY="0"><path style="fill:#000;fill-opacity:1;fill-rule:evenodd;stroke:#000;stroke-width:.625;stroke-linejoin:round;stroke-opacity:1" id="path1114-8" d="M 8.7185878,4.0337352 -2.2072895,0.01601326 8.7185884,-4.0017078 c -1.7454984,2.3720609 -1.7354408,5.6174519 -6e-7,8.035443 z" transform="matrix(-1.1,0,0,-1.1,-1.1,0)"/></marker><marker style="overflow:visible" id="Arrow2Lend-7" orient="auto" refX="0" refY="0"><path style="fill:#000;fill-opacity:1;fill-rule:evenodd;stroke:#000;stroke-width:.625;stroke-linejoin:round;stroke-opacity:1" id="path1114-4" d="M 8.7185878,4.0337352 -2.2072895,0.01601326 8.7185884,-4.0017078 c -1.7454984,2.3720609 -1.7354408,5.6174519 -6e-7,8.035443 z" transform="matrix(-1.1,0,0,-1.1,-1.1,0)"/></marker><marker id="Arrow2Lend-7-3" orient="auto" refX="0" refY="0" style="overflow:visible"><path id="path1114-4-2" d="M 8.7185878,4.0337352 -2.2072895,0.01601326 8.7185884,-4.0017078 c -1.7454984,2.3720609 -1.7354408,5.6174519 -6e-7,8.035443 z" transform="matrix(-1.1,0,0,-1.1,-1.1,0)" style="fill:#000;fill-opacity:1;fill-rule:evenodd;stroke:#000;stroke-width:.625;stroke-linejoin:round;stroke-opacity:1"/></marker></defs><metadata id="metadata5"/><g id="layer1" transform="translate(0.3261719,-48.015813)"><path style="fill:none;stroke:#000;stroke-width:.52916667;stroke-linecap:butt;stroke-linejoin:miter;stroke-opacity:1;stroke-miterlimit:4;stroke-dasharray:none" id="path835" d="m 71.437499,120.37664 v 34.39583 h 44.979171"/><path style="fill:none;stroke:#000;stroke-width:.52916667;stroke-linecap:butt;stroke-linejoin:miter;stroke-opacity:1;stroke-miterlimit:4;stroke-dasharray:none" id="path839" d="M 116.41667,154.77247 V 120.37664"/><path style="fill:none;stroke:#000;stroke-width:.52916667;stroke-linecap:butt;stroke-linejoin:miter;stroke-miterlimit:4;stroke-dasharray:6.35,6.35;stroke-dashoffset:2.11666667;stroke-opacity:1" id="path843" d="M 70.879984,120.37664 H 118.505"/><text style="font-size:4.23333px;line-height:1.25;font-family:sans-serif;stroke-width:.264583" id="text849" x="93.764" y="128.031" xml:space="preserve"><tspan id="tspan847" x="93.764" y="128.031" style="font-size:4.23333px;text-align:center;text-anchor:middle;stroke-width:.264583">Low Level</tspan><tspan style="font-size:4.23333px;text-align:center;text-anchor:middle;stroke-width:.264583" id="tspan851" x="93.764" y="133.322">Transaction </tspan><tspan style="font-size:4.23333px;text-align:center;text-anchor:middle;stroke-width:.264583" id="tspan853" x="93.764" y="138.614">Service</tspan><tspan style="font-size:4.23333px;text-align:center;text-anchor:middle;stroke-width:.264583" id="tspan855" x="93.764" y="143.906">Implementation</tspan><tspan style="font-size:4.23333px;text-align:center;text-anchor:middle;stroke-width:.264583" id="tspan857" x="93.764" y="149.197">(for example, JTS)</tspan></text><path style="fill:none;stroke:#404040;stroke-width:.52916667;stroke-linecap:round;stroke-linejoin:round;stroke-miterlimit:4;stroke-dasharray:none;stroke-dashoffset:1.06;paint-order:markers stroke fill" id="path859" d="m -41.38467,-120.16397 a 52.441845,49.993626 0 0 1 -26.220923,43.295749 52.441845,49.993626 0 0 1 -52.441847,-10e-7 52.441845,49.993626 0 0 1 -26.22092,-43.295748" transform="scale(-1)"/><path style="fill:none;stroke:#000;stroke-width:.52916667;stroke-linecap:butt;stroke-linejoin:miter;stroke-opacity:1;stroke-miterlimit:4;stroke-dasharray:none" id="path872" d="m 41.277688,120.38542 h 30"/><path style="fill:none;stroke:#000;stroke-width:.52916667;stroke-linecap:butt;stroke-linejoin:miter;stroke-miterlimit:4;stroke-dasharray:none;stroke-opacity:1" id="path876" d="m 116.41667,120.36136 h 30"/><path style="fill:none;stroke:#404040;stroke-width:.52916667;stroke-linecap:round;stroke-linejoin:round;stroke-miterlimit:4;stroke-dasharray:none;stroke-dashoffset:4.00631;paint-order:markers stroke fill" id="path880" d="m -70.732773,-120.97302 a 22.5,22.5 0 0 1 -11.25,19.48557 22.5,22.5 0 0 1 -22.499997,0 22.5,22.5 0 0 1 -11.25,-19.48557" transform="rotate(179.64051)"/><text style="font-size:14px;line-height:0;font-family:sans-serif;stroke-width:.264583" id="text884" x="94.038" y="109.991" xml:space="preserve"><tspan id="tspan882" x="94.038" y="109.991" style="font-size:4.23333px;line-height:1.25;text-align:center;text-anchor:middle;stroke-width:.264583">Transaction</tspan><tspan style="font-size:4.23333px;text-align:center;text-anchor:middle;stroke-width:.264583" id="tspan886" x="94.038" y="115.443">Manager</tspan></text><text id="text884-4" x="59.965" y="107.615" xml:space="preserve" style="font-size:14px;line-height:0;font-family:sans-serif;stroke-width:.264583"><tspan id="tspan886-0" x="59.965" y="107.615" style="font-size:4.23333px;text-align:center;text-anchor:middle;stroke-width:.264583">Application</tspan></text><text id="text884-0" x="94.011" y="83.533" xml:space="preserve" style="font-size:4.23333px;line-height:1.25em;font-family:sans-serif;stroke-width:.264583"><tspan id="tspan886-8" x="94.011" y="83.533" style="font-size:4.23333px;text-align:center;text-anchor:middle;stroke-width:.264583">Application</tspan><tspan style="font-size:4.23333px;text-align:center;text-anchor:middle;stroke-width:.264583" id="tspan925" x="94.011" y="88.824">Server</tspan></text><text style="font-size:4.23333px;line-height:1.25em;font-family:sans-serif;stroke-width:.264583" id="text884-0-9" x="126.678" y="104.888" xml:space="preserve"><tspan id="tspan925-9" x="126.678" y="104.888" style="font-size:4.23333px;text-align:center;text-anchor:middle;stroke-width:.264583">Resource</tspan><tspan style="font-size:4.23333px;text-align:center;text-anchor:middle;stroke-width:.264583" id="tspan952" x="126.678" y="110.18">Manager</tspan></text><path style="fill:none;stroke:#000;stroke-width:.52916667;stroke-linecap:butt;stroke-linejoin:miter;stroke-opacity:1;stroke-miterlimit:4;stroke-dasharray:none" id="path954" d="M 59.531249,82.020832 79.374999,103.1875"/><path style="fill:none;stroke:#000;stroke-width:.52916667;stroke-linecap:butt;stroke-linejoin:miter;stroke-opacity:1;stroke-miterlimit:4;stroke-dasharray:none" id="path962" d="M 108.47917,103.1875 127,82.020832"/><text id="text884-0-9-2" x="39.366" y="83.722" xml:space="preserve" style="font-size:4.23333px;line-height:1.25em;font-family:sans-serif;stroke-width:.264583"><tspan id="tspan952-1" x="39.366" y="83.722" style="font-size:4.23333px;text-align:center;text-anchor:middle;stroke-width:.264583">Enterprise</tspan><tspan style="font-size:4.23333px;text-align:center;text-anchor:middle;stroke-width:.264583" id="tspan989" x="39.366" y="89.013">Beans</tspan></text><text style="font-size:4.23333px;line-height:1.25em;font-family:sans-serif;stroke-width:.264583" id="text884-0-9-2-4" x="128.379" y="61.232" xml:space="preserve"><tspan id="tspan989-0" x="128.379" y="61.232" style="font-size:4.23333px;text-align:center;text-anchor:middle;stroke-width:.264583">Jakarta Transactions</tspan><tspan style="font-size:4.23333px;text-align:center;text-anchor:middle;stroke-width:.264583" id="tspan1916" x="128.379" y="66.524">TransactionManager</tspan></text><text style="font-size:4.23333px;line-height:1.25em;font-family:sans-serif;stroke-width:.264583" id="text884-0-9-2-1" x="159.373" y="87.313" xml:space="preserve"><tspan id="tspan989-6" x="159.373" y="87.313" style="font-size:4.23333px;text-align:center;text-anchor:middle;stroke-width:.264583">JDBC, Jakarta</tspan><tspan style="font-size:4.23333px;text-align:center;text-anchor:middle;stroke-width:.264583" id="tspan1037" x="159.373" y="92.604">Messaging</tspan></text><text id="text884-0-9-2-1-1" x="141.608" y="129.955" xml:space="preserve" style="font-size:4.23333px;line-height:1.25em;font-family:sans-serif;stroke-width:.264583"><tspan style="font-size:4.23333px;text-align:center;text-anchor:middle;stroke-width:.264583" id="tspan1062" x="141.608" y="129.955">Java SE</tspan><tspan style="font-size:4.23333px;text-align:center;text-anchor:middle;stroke-width:.264583" id="tspan1064" x="141.608" y="135.246">XAResource</tspan></text><text style="font-size:4.23333px;line-height:1.25em;font-family:sans-serif;stroke-width:.264583" id="text884-0-9-2-1-1-3" x="32.373" y="129.646" xml:space="preserve"><tspan id="tspan1062-8" x="32.373" y="129.646" style="font-size:4.23333px;text-align:center;text-anchor:middle;stroke-width:.264583">Jakarta Transactions</tspan><tspan id="tspan1064-5" x="32.373" y="134.938" style="font-size:4.23333px;text-align:center;text-anchor:middle;stroke-width:.264583">UserTransaction</tspan></text><path style="fill:none;stroke:#000;stroke-width:.52916667;stroke-linecap:butt;stroke-linejoin:miter;stroke-opacity:1;marker-end:url(#Arrow2Lend);stroke-miterlimit:4;stroke-dasharray:none" id="path1089" d="m 50.270833,79.375 c 2.645895,-1.76393 5.291675,-3.527783 8.378644,-4.409725 3.08697,-0.881942 6.614606,-0.881942 7.937394,0.882076 1.322787,1.764017 0.44086,5.291724 -0.441038,8.819316"/><path id="path1089-0" d="m 124.35417,68.791667 c 0,0.88221 0,1.764141 -2.64588,4.409886 -2.64588,2.645744 -7.93732,7.055278 -11.46521,11.465172 -3.52789,4.409893 -5.29175,8.819524 -7.05558,13.229108" style="fill:none;stroke:#000;stroke-width:.52916667;stroke-linecap:butt;stroke-linejoin:miter;stroke-opacity:1;marker-end:url(#Arrow2Lend-3);stroke-miterlimit:4;stroke-dasharray:none"/><path id="path1089-4" d="m 142.875,89.958333 c -1.05562,0.605694 -2.11133,1.211439 -4.11175,2.48578 -2.00041,1.274342 -4.94499,3.216926 -7.50391,2.913928 -2.55892,-0.302998 -4.73206,-2.85137 -6.90517,-5.399708" style="fill:none;stroke:#000;stroke-width:.52916667;stroke-linecap:butt;stroke-linejoin:miter;stroke-opacity:1;marker-end:url(#Arrow2Lend-2);stroke-miterlimit:4;stroke-dasharray:none"/><path id="path1089-3" d="m 55.5625,127 c 0.881892,-2.64568 1.763818,-5.29146 2.64578,-7.49639 0.881962,-2.20493 1.763872,-3.96875 3.968936,-4.85076 2.205064,-0.88202 5.732773,-0.88202 9.260284,-0.88202" style="fill:none;stroke:#000;stroke-width:.52916667;stroke-linecap:butt;stroke-linejoin:miter;stroke-opacity:1;marker-end:url(#Arrow2Lend-7);stroke-miterlimit:4;stroke-dasharray:none"/><path style="fill:none;stroke:#000;stroke-width:.52916667;stroke-linecap:butt;stroke-linejoin:miter;stroke-opacity:1;marker-end:url(#Arrow2Lend-7-3);stroke-miterlimit:4;stroke-dasharray:none" id="path1089-3-5" d="m 132.29167,127 c -0.88184,-2.64552 -1.76377,-5.2913 -2.64565,-7.05525 -0.88188,-1.76395 -1.76379,-2.64586 -3.96867,-3.52792 -2.20488,-0.88205 -5.73259,-1.76398 -9.26068,-2.646"/><text style="font-size:4.23333px;line-height:1.25;font-family:sans-serif;stroke-width:.264583" id="text1691" x="66.817" y="175.755" xml:space="preserve"><tspan id="tspan1689" x="66.817" y="175.755" style="stroke-width:.264583">Communication Resource </tspan><tspan style="stroke-width:.264583" id="tspan1693" x="66.817" y="181.046">Manager (CRM)</tspan></text><rect style="fill:none;stroke:#404040;stroke-width:.52916667;stroke-linecap:round;stroke-linejoin:round;stroke-miterlimit:4;stroke-dasharray:none;stroke-dashoffset:4.00631;paint-order:markers stroke fill" id="rect1695" width="66.171" height="21.673" x="60.842" y="164.029"/><path style="fill:none;stroke:#000;stroke-width:.52916667;stroke-linecap:butt;stroke-linejoin:miter;stroke-opacity:1;marker-end:url(#marker1703);stroke-miterlimit:4;stroke-dasharray:none" id="path1697" d="m 23.8125,169.33333 h 63.499999 l 10e-7,-13.22916"/><path style="fill:none;stroke:#000;stroke-width:.52916667;stroke-linecap:butt;stroke-linejoin:miter;stroke-opacity:1;marker-end:url(#marker1759);stroke-miterlimit:4;stroke-dasharray:none" id="path1753" d="m 100.54167,156.10416 v 13.22917 H 158.75"/><text id="text1691-9" x="32.884" y="166.083" xml:space="preserve" style="font-size:4.23333px;line-height:1.25;font-family:sans-serif;stroke-width:.264583"><tspan id="tspan1693-2" x="32.884" y="166.083" style="stroke-width:.264583">Inbound tx</tspan></text><text style="font-size:4.23333px;line-height:1.25;font-family:sans-serif;stroke-width:.264583" id="text1691-9-5" x="9.26" y="175.664" xml:space="preserve"><tspan style="stroke-width:.264583" id="tspan1693-2-2" x="9.26" y="175.664">Protocol Specific</tspan></text><text style="font-size:4.23333px;line-height:1.25;font-family:sans-serif;stroke-width:.264583" id="text1691-9-0" x="130.78" y="166.083" xml:space="preserve"><tspan style="stroke-width:.264583" id="tspan1693-2-24" x="130.78" y="166.083">Outbound tx</tspan></text><text id="text1691-9-5-3" x="140.796" y="175.664" xml:space="preserve" style="font-size:4.23333px;line-height:1.25;font-family:sans-serif;stroke-width:.264583"><tspan id="tspan1693-2-2-8" x="140.796" y="175.664" style="stroke-width:.264583">Protocol Specific</tspan></text></g></svg>